<svg xmlns="http://www.w3.org/2000/svg" width="2000" height="1418" viewBox="0 0 2000 1418" font-family="Segoe UI, Arial, sans-serif">
<rect width="2000" height="1418" fill="#0f1115"/>
<defs>
<marker id="arrow-critical" markerWidth="11" markerHeight="11" refX="9" refY="3.2" orient="auto"><path d="M0,0 L9,3.2 L0,6.4 z" fill="#d85a5a"/></marker>
<marker id="arrow-high" markerWidth="11" markerHeight="11" refX="9" refY="3.2" orient="auto"><path d="M0,0 L9,3.2 L0,6.4 z" fill="#e08a57"/></marker>
<marker id="arrow-medium" markerWidth="11" markerHeight="11" refX="9" refY="3.2" orient="auto"><path d="M0,0 L9,3.2 L0,6.4 z" fill="#e0b020"/></marker>
<marker id="arrow-low" markerWidth="11" markerHeight="11" refX="9" refY="3.2" orient="auto"><path d="M0,0 L9,3.2 L0,6.4 z" fill="#59b981"/></marker>
<marker id="arrow-mitigated" markerWidth="11" markerHeight="11" refX="9" refY="3.2" orient="auto"><path d="M0,0 L9,3.2 L0,6.4 z" fill="#2a9d8f"/></marker>
<marker id="arrow-default" markerWidth="11" markerHeight="11" refX="9" refY="3.2" orient="auto"><path d="M0,0 L9,3.2 L0,6.4 z" fill="#7c879a"/></marker>
</defs>
<style>.nd{cursor:pointer}.nd:hover rect{stroke:#fff;stroke-width:3}</style>
<text x="46" y="58" fill="#e8edf4" font-size="34" font-weight="700">CertifEye - AD CS Attack-Path Graph</text>
<text x="48" y="90" fill="#9aa6b6" font-size="18">generated from the current scrubbed dataset · no client-specific paths are hard-coded</text>
<text x="210.0" y="135" fill="#9aa6b6" font-size="17" font-weight="700" letter-spacing="1.5" text-anchor="middle">PRINCIPAL/OBJECT</text>
<g class="nd"><title>Principal/Object
PRINCIPAL_1a8fce5017e7babdcbd920c3
Severity: Critical</title>
<rect class="node-box" x="80" y="219" rx="11" ry="11" width="260" height="72" fill="#4f9fe0" stroke="#d85a5a" stroke-width="2"/>
<text x="210.0" y="248.0" fill="#10131a" font-size="13.5" font-weight="700" text-anchor="middle">
<tspan x="210.0" dy="0">PRINCIPAL_</tspan>
<tspan x="210.0" dy="18">1a8fce5017e7babdcbd920…</tspan></text>
<text x="210.0" y="311" fill="#d85a5a" font-size="13.5" font-weight="700" text-anchor="middle">Critical</text>
</g>
<g class="nd"><title>Principal/Object
TPL_8a51cba45cc56d7160b059b2
Severity: Medium</title>
<rect class="node-box" x="80" y="317" rx="11" ry="11" width="260" height="72" fill="#4f9fe0" stroke="#e0b020" stroke-width="2"/>
<text x="210.0" y="358.0" fill="#10131a" font-size="13.5" font-weight="700" text-anchor="middle">TPL_8a51cba45cc56d7160b059b2</text>
<text x="210.0" y="409" fill="#e0b020" font-size="13.5" font-weight="700" text-anchor="middle">Medium</text>
</g>
<g class="nd"><title>Principal/Object
CA_2e1fd3acef6dc7f48d1e9451
Severity: High</title>
<rect class="node-box" x="80" y="415" rx="11" ry="11" width="260" height="72" fill="#4f9fe0" stroke="#e08a57" stroke-width="2"/>
<text x="210.0" y="456.0" fill="#10131a" font-size="13.5" font-weight="700" text-anchor="middle">CA_2e1fd3acef6dc7f48d1e9451</text>
<text x="210.0" y="507" fill="#e08a57" font-size="13.5" font-weight="700" text-anchor="middle">High</text>
</g>
<g class="nd"><title>Principal/Object
Enrollment Agent / on-behalf-of issuance
Severity: High</title>
<rect class="node-box" x="80" y="513" rx="11" ry="11" width="260" height="72" fill="#4f9fe0" stroke="#e08a57" stroke-width="2"/>
<text x="210.0" y="542.0" fill="#10131a" font-size="13.5" font-weight="700" text-anchor="middle">
<tspan x="210.0" dy="0">Enrollment Agent /</tspan>
<tspan x="210.0" dy="18">on-behalf-of issuance</tspan></text>
<text x="210.0" y="605" fill="#e08a57" font-size="13.5" font-weight="700" text-anchor="middle">High</text>
</g>
<g class="nd"><title>Principal/Object
PRINCIPAL_db66978dcec117f0da16f56f
Severity: High</title>
<rect class="node-box" x="80" y="611" rx="11" ry="11" width="260" height="72" fill="#4f9fe0" stroke="#e08a57" stroke-width="2"/>
<text x="210.0" y="640.0" fill="#10131a" font-size="13.5" font-weight="700" text-anchor="middle">
<tspan x="210.0" dy="0">PRINCIPAL_</tspan>
<tspan x="210.0" dy="18">db66978dcec117f0da16f5…</tspan></text>
<text x="210.0" y="703" fill="#e08a57" font-size="13.5" font-weight="700" text-anchor="middle">High</text>
</g>
<g class="nd"><title>Principal/Object
COMPUTER_9482814825d3dc360e819cd2
Severity: High</title>
<rect class="node-box" x="80" y="709" rx="11" ry="11" width="260" height="72" fill="#4f9fe0" stroke="#e08a57" stroke-width="2"/>
<text x="210.0" y="738.0" fill="#10131a" font-size="13.5" font-weight="700" text-anchor="middle">
<tspan x="210.0" dy="0">COMPUTER_</tspan>
<tspan x="210.0" dy="18">9482814825d3dc360e819c…</tspan></text>
<text x="210.0" y="801" fill="#e08a57" font-size="13.5" font-weight="700" text-anchor="middle">High</text>
</g>
<g class="nd"><title>Principal/Object
SID security extension / DC enforcement
Severity: High</title>
<rect class="node-box" x="80" y="807" rx="11" ry="11" width="260" height="72" fill="#4f9fe0" stroke="#e08a57" stroke-width="2"/>
<text x="210.0" y="836.0" fill="#10131a" font-size="13.5" font-weight="700" text-anchor="middle">
<tspan x="210.0" dy="0">SID security extension / DC</tspan>
<tspan x="210.0" dy="18">enforcement</tspan></text>
<text x="210.0" y="899" fill="#e08a57" font-size="13.5" font-weight="700" text-anchor="middle">High</text>
</g>
<g class="nd"><title>Principal/Object
COMPUTER_7034fce70867a0dac7048921
Severity: Medium</title>
<rect class="node-box" x="80" y="905" rx="11" ry="11" width="260" height="72" fill="#4f9fe0" stroke="#e0b020" stroke-width="2"/>
<text x="210.0" y="934.0" fill="#10131a" font-size="13.5" font-weight="700" text-anchor="middle">
<tspan x="210.0" dy="0">COMPUTER_</tspan>
<tspan x="210.0" dy="18">7034fce70867a0dac70489…</tspan></text>
<text x="210.0" y="997" fill="#e0b020" font-size="13.5" font-weight="700" text-anchor="middle">Medium</text>
</g>
<g class="nd"><title>Principal/Object
COMPUTER_507b264ef7a8e6eb273ef341
Severity: Medium</title>
<rect class="node-box" x="80" y="1003" rx="11" ry="11" width="260" height="72" fill="#4f9fe0" stroke="#e0b020" stroke-width="2"/>
<text x="210.0" y="1032.0" fill="#10131a" font-size="13.5" font-weight="700" text-anchor="middle">
<tspan x="210.0" dy="0">COMPUTER_</tspan>
<tspan x="210.0" dy="18">507b264ef7a8e6eb273ef3…</tspan></text>
<text x="210.0" y="1095" fill="#e0b020" font-size="13.5" font-weight="700" text-anchor="middle">Medium</text>
</g>
<text x="1000.0" y="135" fill="#9aa6b6" font-size="17" font-weight="700" letter-spacing="1.5" text-anchor="middle">ESC FINDING</text>
<g class="nd"><title>ESC finding
F01-ESC5
Severity: Critical</title>
<rect class="node-box" x="870" y="170" rx="11" ry="11" width="260" height="72" fill="#ab8fd6" stroke="#d85a5a" stroke-width="2"/>
<text x="1000.0" y="211.0" fill="#10131a" font-size="15" font-weight="700" text-anchor="middle">F01-ESC5</text>
<text x="1000.0" y="262" fill="#d85a5a" font-size="13.5" font-weight="700" text-anchor="middle">Critical</text>
</g>
<g class="nd"><title>ESC finding
F02-ESC1
Severity: High</title>
<rect class="node-box" x="870" y="268" rx="11" ry="11" width="260" height="72" fill="#ab8fd6" stroke="#e08a57" stroke-width="2"/>
<text x="1000.0" y="309.0" fill="#10131a" font-size="15" font-weight="700" text-anchor="middle">F02-ESC1</text>
<text x="1000.0" y="360" fill="#e08a57" font-size="13.5" font-weight="700" text-anchor="middle">High</text>
</g>
<g class="nd"><title>ESC finding
F03-ESC11
Severity: High</title>
<rect class="node-box" x="870" y="366" rx="11" ry="11" width="260" height="72" fill="#ab8fd6" stroke="#e08a57" stroke-width="2"/>
<text x="1000.0" y="407.0" fill="#10131a" font-size="15" font-weight="700" text-anchor="middle">F03-ESC11</text>
<text x="1000.0" y="458" fill="#e08a57" font-size="13.5" font-weight="700" text-anchor="middle">High</text>
</g>
<g class="nd"><title>ESC finding
F04-ESC3
Severity: High</title>
<rect class="node-box" x="870" y="464" rx="11" ry="11" width="260" height="72" fill="#ab8fd6" stroke="#e08a57" stroke-width="2"/>
<text x="1000.0" y="505.0" fill="#10131a" font-size="15" font-weight="700" text-anchor="middle">F04-ESC3</text>
<text x="1000.0" y="556" fill="#e08a57" font-size="13.5" font-weight="700" text-anchor="middle">High</text>
</g>
<g class="nd"><title>ESC finding
F05-ESC4
Severity: High</title>
<rect class="node-box" x="870" y="562" rx="11" ry="11" width="260" height="72" fill="#ab8fd6" stroke="#e08a57" stroke-width="2"/>
<text x="1000.0" y="603.0" fill="#10131a" font-size="15" font-weight="700" text-anchor="middle">F05-ESC4</text>
<text x="1000.0" y="654" fill="#e08a57" font-size="13.5" font-weight="700" text-anchor="middle">High</text>
</g>
<g class="nd"><title>ESC finding
F06-ESC8
Severity: High</title>
<rect class="node-box" x="870" y="660" rx="11" ry="11" width="260" height="72" fill="#ab8fd6" stroke="#e08a57" stroke-width="2"/>
<text x="1000.0" y="701.0" fill="#10131a" font-size="15" font-weight="700" text-anchor="middle">F06-ESC8</text>
<text x="1000.0" y="752" fill="#e08a57" font-size="13.5" font-weight="700" text-anchor="middle">High</text>
</g>
<g class="nd"><title>ESC finding
F07-ESC9-10
Severity: High</title>
<rect class="node-box" x="870" y="758" rx="11" ry="11" width="260" height="72" fill="#ab8fd6" stroke="#e08a57" stroke-width="2"/>
<text x="1000.0" y="799.0" fill="#10131a" font-size="15" font-weight="700" text-anchor="middle">F07-ESC9-10</text>
<text x="1000.0" y="850" fill="#e08a57" font-size="13.5" font-weight="700" text-anchor="middle">High</text>
</g>
<g class="nd"><title>ESC finding
F08-ESC1
Severity: Medium</title>
<rect class="node-box" x="870" y="856" rx="11" ry="11" width="260" height="72" fill="#ab8fd6" stroke="#e0b020" stroke-width="2"/>
<text x="1000.0" y="897.0" fill="#10131a" font-size="15" font-weight="700" text-anchor="middle">F08-ESC1</text>
<text x="1000.0" y="948" fill="#e0b020" font-size="13.5" font-weight="700" text-anchor="middle">Medium</text>
</g>
<g class="nd"><title>ESC finding
F09-ESC8
Severity: Medium</title>
<rect class="node-box" x="870" y="954" rx="11" ry="11" width="260" height="72" fill="#ab8fd6" stroke="#e0b020" stroke-width="2"/>
<text x="1000.0" y="995.0" fill="#10131a" font-size="15" font-weight="700" text-anchor="middle">F09-ESC8</text>
<text x="1000.0" y="1046" fill="#e0b020" font-size="13.5" font-weight="700" text-anchor="middle">Medium</text>
</g>
<g class="nd"><title>ESC finding
F10-ESC8
Severity: Medium</title>
<rect class="node-box" x="870" y="1052" rx="11" ry="11" width="260" height="72" fill="#ab8fd6" stroke="#e0b020" stroke-width="2"/>
<text x="1000.0" y="1093.0" fill="#10131a" font-size="15" font-weight="700" text-anchor="middle">F10-ESC8</text>
<text x="1000.0" y="1144" fill="#e0b020" font-size="13.5" font-weight="700" text-anchor="middle">Medium</text>
</g>
<text x="1790.0" y="135" fill="#9aa6b6" font-size="17" font-weight="700" letter-spacing="1.5" text-anchor="middle">IMPACT/TARGET</text>
<g class="nd"><title>Impact/target
CertificationAuthoritiesContainer;NTAuthCertificates
Severity: Critical</title>
<rect class="node-box" x="1660" y="170" rx="11" ry="11" width="260" height="72" fill="#e0b020" stroke="#d85a5a" stroke-width="2"/>
<text x="1790.0" y="211.0" fill="#10131a" font-size="13.5" font-weight="700" text-anchor="middle">CertificationAuthoritiesCo…</text>
<text x="1790.0" y="262" fill="#d85a5a" font-size="13.5" font-weight="700" text-anchor="middle">Critical</text>
</g>
<g class="nd"><title>Impact/target
SAN target differs from requester
Severity: High</title>
<rect class="node-box" x="1660" y="268" rx="11" ry="11" width="260" height="72" fill="#e0b020" stroke="#e08a57" stroke-width="2"/>
<text x="1790.0" y="297.0" fill="#10131a" font-size="13.5" font-weight="700" text-anchor="middle">
<tspan x="1790.0" dy="0">SAN target differs from</tspan>
<tspan x="1790.0" dy="18">requester</tspan></text>
<text x="1790.0" y="360" fill="#e08a57" font-size="13.5" font-weight="700" text-anchor="middle">High</text>
</g>
<g class="nd"><title>Impact/target
CA_2e1fd3acef6dc7f48d1e9451
Severity: High</title>
<rect class="node-box" x="1660" y="366" rx="11" ry="11" width="260" height="72" fill="#e0b020" stroke="#e08a57" stroke-width="2"/>
<text x="1790.0" y="407.0" fill="#10131a" font-size="13.5" font-weight="700" text-anchor="middle">CA_2e1fd3acef6dc7f48d1e9451</text>
<text x="1790.0" y="458" fill="#e08a57" font-size="13.5" font-weight="700" text-anchor="middle">High</text>
</g>
<g class="nd"><title>Impact/target
Enrollment Agent / on-behalf-of issuance
Severity: High</title>
<rect class="node-box" x="1660" y="464" rx="11" ry="11" width="260" height="72" fill="#e0b020" stroke="#e08a57" stroke-width="2"/>
<text x="1790.0" y="493.0" fill="#10131a" font-size="13.5" font-weight="700" text-anchor="middle">
<tspan x="1790.0" dy="0">Enrollment Agent /</tspan>
<tspan x="1790.0" dy="18">on-behalf-of issuance</tspan></text>
<text x="1790.0" y="556" fill="#e08a57" font-size="13.5" font-weight="700" text-anchor="middle">High</text>
</g>
<g class="nd"><title>Impact/target
TPL_4d61efba5e97e9618882ebee
Severity: High</title>
<rect class="node-box" x="1660" y="562" rx="11" ry="11" width="260" height="72" fill="#e0b020" stroke="#e08a57" stroke-width="2"/>
<text x="1790.0" y="603.0" fill="#10131a" font-size="13.5" font-weight="700" text-anchor="middle">TPL_4d61efba5e97e9618882ebee</text>
<text x="1790.0" y="654" fill="#e08a57" font-size="13.5" font-weight="700" text-anchor="middle">High</text>
</g>
<g class="nd"><title>Impact/target
COMPUTER_9482814825d3dc360e819cd2
Severity: High</title>
<rect class="node-box" x="1660" y="660" rx="11" ry="11" width="260" height="72" fill="#e0b020" stroke="#e08a57" stroke-width="2"/>
<text x="1790.0" y="689.0" fill="#10131a" font-size="13.5" font-weight="700" text-anchor="middle">
<tspan x="1790.0" dy="0">COMPUTER_</tspan>
<tspan x="1790.0" dy="18">9482814825d3dc360e819c…</tspan></text>
<text x="1790.0" y="752" fill="#e08a57" font-size="13.5" font-weight="700" text-anchor="middle">High</text>
</g>
<g class="nd"><title>Impact/target
SID security extension / DC enforcement
Severity: High</title>
<rect class="node-box" x="1660" y="758" rx="11" ry="11" width="260" height="72" fill="#e0b020" stroke="#e08a57" stroke-width="2"/>
<text x="1790.0" y="787.0" fill="#10131a" font-size="13.5" font-weight="700" text-anchor="middle">
<tspan x="1790.0" dy="0">SID security extension / DC</tspan>
<tspan x="1790.0" dy="18">enforcement</tspan></text>
<text x="1790.0" y="850" fill="#e08a57" font-size="13.5" font-weight="700" text-anchor="middle">High</text>
</g>
<g class="nd"><title>Impact/target
TPL_8a51cba45cc56d7160b059b2
Severity: Medium</title>
<rect class="node-box" x="1660" y="856" rx="11" ry="11" width="260" height="72" fill="#e0b020" stroke="#e0b020" stroke-width="2"/>
<text x="1790.0" y="897.0" fill="#10131a" font-size="13.5" font-weight="700" text-anchor="middle">TPL_8a51cba45cc56d7160b059b2</text>
<text x="1790.0" y="948" fill="#e0b020" font-size="13.5" font-weight="700" text-anchor="middle">Medium</text>
</g>
<g class="nd"><title>Impact/target
COMPUTER_7034fce70867a0dac7048921
Severity: Medium</title>
<rect class="node-box" x="1660" y="954" rx="11" ry="11" width="260" height="72" fill="#e0b020" stroke="#e0b020" stroke-width="2"/>
<text x="1790.0" y="983.0" fill="#10131a" font-size="13.5" font-weight="700" text-anchor="middle">
<tspan x="1790.0" dy="0">COMPUTER_</tspan>
<tspan x="1790.0" dy="18">7034fce70867a0dac70489…</tspan></text>
<text x="1790.0" y="1046" fill="#e0b020" font-size="13.5" font-weight="700" text-anchor="middle">Medium</text>
</g>
<g class="nd"><title>Impact/target
COMPUTER_507b264ef7a8e6eb273ef341
Severity: Medium</title>
<rect class="node-box" x="1660" y="1052" rx="11" ry="11" width="260" height="72" fill="#e0b020" stroke="#e0b020" stroke-width="2"/>
<text x="1790.0" y="1081.0" fill="#10131a" font-size="13.5" font-weight="700" text-anchor="middle">
<tspan x="1790.0" dy="0">COMPUTER_</tspan>
<tspan x="1790.0" dy="18">507b264ef7a8e6eb273ef3…</tspan></text>
<text x="1790.0" y="1144" fill="#e0b020" font-size="13.5" font-weight="700" text-anchor="middle">Medium</text>
</g>
<g class="edge"><title>Critical
Severity: Critical</title>
<path d="M 340 255 C 531 255, 679 206, 870 206" fill="none" stroke="#d85a5a" stroke-width="2.2" stroke-opacity="0.9" marker-end="url(#arrow-critical)"/>
</g>
<g class="edge"><title>can enable
Severity: Critical</title>
<path d="M 1130 206 C 1321 206, 1469 206, 1660 206" fill="none" stroke="#d85a5a" stroke-width="2.2" stroke-opacity="0.9" marker-end="url(#arrow-critical)"/>
</g>
<g class="edge"><title>High
Severity: High</title>
<path d="M 340 353 C 531 353, 679 304, 870 304" fill="none" stroke="#e08a57" stroke-width="2.2" stroke-opacity="0.9" marker-end="url(#arrow-high)"/>
</g>
<g class="edge"><title>can enable
Severity: High</title>
<path d="M 1130 304 C 1321 304, 1469 304, 1660 304" fill="none" stroke="#e08a57" stroke-width="2.2" stroke-opacity="0.9" marker-end="url(#arrow-high)"/>
</g>
<g class="edge"><title>High
Severity: High</title>
<path d="M 340 451 C 531 451, 679 402, 870 402" fill="none" stroke="#e08a57" stroke-width="2.2" stroke-opacity="0.9" marker-end="url(#arrow-high)"/>
</g>
<g class="edge"><title>can enable
Severity: High</title>
<path d="M 1130 402 C 1321 402, 1469 402, 1660 402" fill="none" stroke="#e08a57" stroke-width="2.2" stroke-opacity="0.9" marker-end="url(#arrow-high)"/>
</g>
<g class="edge"><title>High
Severity: High</title>
<path d="M 340 549 C 531 549, 679 500, 870 500" fill="none" stroke="#e08a57" stroke-width="2.2" stroke-opacity="0.9" marker-end="url(#arrow-high)"/>
</g>
<g class="edge"><title>can enable
Severity: High</title>
<path d="M 1130 500 C 1321 500, 1469 500, 1660 500" fill="none" stroke="#e08a57" stroke-width="2.2" stroke-opacity="0.9" marker-end="url(#arrow-high)"/>
</g>
<g class="edge"><title>High
Severity: High</title>
<path d="M 340 647 C 531 647, 679 598, 870 598" fill="none" stroke="#e08a57" stroke-width="2.2" stroke-opacity="0.9" marker-end="url(#arrow-high)"/>
</g>
<g class="edge"><title>can enable
Severity: High</title>
<path d="M 1130 598 C 1321 598, 1469 598, 1660 598" fill="none" stroke="#e08a57" stroke-width="2.2" stroke-opacity="0.9" marker-end="url(#arrow-high)"/>
</g>
<g class="edge"><title>High
Severity: High</title>
<path d="M 340 745 C 531 745, 679 696, 870 696" fill="none" stroke="#e08a57" stroke-width="2.2" stroke-opacity="0.9" marker-end="url(#arrow-high)"/>
</g>
<g class="edge"><title>can enable
Severity: High</title>
<path d="M 1130 696 C 1321 696, 1469 696, 1660 696" fill="none" stroke="#e08a57" stroke-width="2.2" stroke-opacity="0.9" marker-end="url(#arrow-high)"/>
</g>
<g class="edge"><title>High
Severity: High</title>
<path d="M 340 843 C 531 843, 679 794, 870 794" fill="none" stroke="#e08a57" stroke-width="2.2" stroke-opacity="0.9" marker-end="url(#arrow-high)"/>
</g>
<g class="edge"><title>can enable
Severity: High</title>
<path d="M 1130 794 C 1321 794, 1469 794, 1660 794" fill="none" stroke="#e08a57" stroke-width="2.2" stroke-opacity="0.9" marker-end="url(#arrow-high)"/>
</g>
<g class="edge"><title>Medium
Severity: Medium</title>
<path d="M 340 353 C 531 353, 679 892, 870 892" fill="none" stroke="#e0b020" stroke-width="2.2" stroke-opacity="0.9" marker-end="url(#arrow-medium)"/>
</g>
<g class="edge"><title>can enable
Severity: Medium</title>
<path d="M 1130 892 C 1321 892, 1469 892, 1660 892" fill="none" stroke="#e0b020" stroke-width="2.2" stroke-opacity="0.9" marker-end="url(#arrow-medium)"/>
</g>
<g class="edge"><title>Medium
Severity: Medium</title>
<path d="M 340 941 C 531 941, 679 990, 870 990" fill="none" stroke="#e0b020" stroke-width="2.2" stroke-opacity="0.9" marker-end="url(#arrow-medium)"/>
</g>
<g class="edge"><title>can enable
Severity: Medium</title>
<path d="M 1130 990 C 1321 990, 1469 990, 1660 990" fill="none" stroke="#e0b020" stroke-width="2.2" stroke-opacity="0.9" marker-end="url(#arrow-medium)"/>
</g>
<g class="edge"><title>Medium
Severity: Medium</title>
<path d="M 340 1039 C 531 1039, 679 1088, 870 1088" fill="none" stroke="#e0b020" stroke-width="2.2" stroke-opacity="0.9" marker-end="url(#arrow-medium)"/>
</g>
<g class="edge"><title>can enable
Severity: Medium</title>
<path d="M 1130 1088 C 1321 1088, 1469 1088, 1660 1088" fill="none" stroke="#e0b020" stroke-width="2.2" stroke-opacity="0.9" marker-end="url(#arrow-medium)"/>
</g>
<g id="graph-legend">
<rect id="legend-panel" x="80" y="1192" rx="12" width="1840" height="178" fill="#141821" stroke="#2a2f3a"/>
<text x="104" y="1226" fill="#e8edf4" font-size="19" font-weight="700">Legend</text>
<rect x="104" y="1247" width="26" height="18" rx="4" fill="#d85a5a"/>
<text x="140" y="1262" fill="#e8edf4" font-size="14.5">Critical</text>
<rect x="403" y="1247" width="26" height="18" rx="4" fill="#e08a57"/>
<text x="439" y="1262" fill="#e8edf4" font-size="14.5">High</text>
<rect x="701" y="1247" width="26" height="18" rx="4" fill="#e0b020"/>
<text x="737" y="1262" fill="#e8edf4" font-size="14.5">Medium</text>
<rect x="1000" y="1247" width="26" height="18" rx="4" fill="#59b981"/>
<text x="1036" y="1262" fill="#e8edf4" font-size="14.5">Low</text>
<rect x="1299" y="1247" width="26" height="18" rx="4" fill="#2a9d8f"/>
<text x="1335" y="1262" fill="#e8edf4" font-size="14.5">Mitigated</text>
<rect x="1597" y="1247" width="26" height="18" rx="4" fill="#6b7482"/>
<text x="1633" y="1262" fill="#e8edf4" font-size="14.5">Not evaluated</text>
<rect x="104" y="1296" width="26" height="18" rx="4" fill="#4f9fe0"/>
<text x="140" y="1311" fill="#e8edf4" font-size="14.5">Principal/Object</text>
<rect x="404" y="1296" width="26" height="18" rx="4" fill="#ab8fd6"/>
<text x="440" y="1311" fill="#e8edf4" font-size="14.5">ESC finding</text>
<rect x="704" y="1296" width="26" height="18" rx="4" fill="#e0b020"/>
<text x="740" y="1311" fill="#e8edf4" font-size="14.5">Impact/target</text>
<text x="1030" y="1311" fill="#9aa6b6" font-size="14">Arrows connect evidence → finding → impact and inherit finding severity.</text>
<text x="1030" y="1342" fill="#9aa6b6" font-size="14">Only the highest-priority current-run findings are shown; hover nodes for full labels.</text>
</g>
</svg>